<svg class="fish-svg" height="214" width="341" xmlns="http://www.w3.org/2000/svg" version="1.1" viewBox="0 0 341 214">
 <path id="path3440" fill="#ffffff" d="m1.96 212.96c2.3-0.94 2.32-1.1 0.31-1.92-1.79-0.73-2.19-2.48-2.19-9.51 0-10-2.53-8.95 21.51-8.92 11.78 0.02 15.03 0.41 16.65 2.04 1.11 1.11 2.96 2.06 4.12 2.1s3.65 0.29 5.54 0.54c4.63 0.61 4.33-0.12-1.25-2.99-2.58-1.33-6.34-4.15-8.36-6.28s-4.38-3.86-5.24-3.86-3.54-1.16-5.95-2.58c-3.42-2.02-4.92-2.29-6.86-1.25-3.06 1.64-20.15 1.78-20.15 0.16 0-0.64 3.52-1.21 7.81-1.25 16.06-0.17 25.8-0.78 26.69-1.67 0.5-0.5 0.16-0.91-0.75-0.91s-1.34-0.33-0.94-0.73-0.2-1.81-1.33-3.14c-1.94-2.26-2.12-2.28-2.93-0.21-0.64 1.62-0.91 1.21-1-1.55-0.16-4.81-2.85-8.41-5.51-7.39-2.41 0.93-2.67-0.81-0.47-3.14 1.25-1.32 1.25-1.77 0-2.23-0.86-0.32-1.57-1.23-1.58-2.03s-1.42-2.78-3.12-4.4c-3.33-3.16-3.81-4.6-1.91-5.77 1.74-1.08 0.12-4.41-2.15-4.41-1.64 0-1.59-0.38 0.33-2.5 2.62-2.89 2.38-2.98-2.96-1.12-2.25 0.79-5.43 0.97-7.37 0.42-3.13-0.88-2.9-1.04 2.63-1.92 6.91-1.1 9.48-3.67 9.54-9.57 0.05-4.68-3-8.3-8.05-9.57-1.9-0.48-3.13-1.19-2.72-1.6 0.4-0.4 0.18-1.75-0.48-2.99-0.82-1.53-0.76-2.54 0.18-3.12 0.97-0.6 0.88-1.17-0.3-1.9-1.35-0.84-1.22-1.39 0.68-2.78 1.64-1.2 1.93-2.01 0.93-2.63-0.92-0.57-1.05-1.66-0.35-3 0.6-1.16 1.53-4.36 2.06-7.11 0.88-4.54 1.05-4.71 1.8-1.87 0.75 2.82 0.91 2.64 1.65-1.8 0.5-2.98 0.27-5.58-0.57-6.59-1.07-1.28-0.96-1.51 0.45-0.96 1.31 0.5 2.26-0.71 3.3-4.18 1.79-5.98 1.86-8.11 0.21-7.09-0.69 0.42-1.25 0.18-1.25-0.55s0.84-1.32 1.88-1.32 1.88-0.52 1.88-1.15 0.38-2.13 0.84-3.33c0.57-1.49 0.37-1.89-0.62-1.28-2.17 1.34-1.77-0.58 0.68-3.28 1.69-1.87 1.8-2.57 0.52-3.36-1.27-0.78-1.19-1.17 0.36-1.76 1.47-0.56 1.98-2.51 1.98-7.53v-6.77l-5.31-0.84c-6.21-0.99-13.66-4.4-14.37-6.59-0.27-0.84 2.13-0.06 5.35 1.74 5.6 3.13 6.29 3.22 16.65 2.15l10.81-1.12 0.03-8.12c0.02-4.47 0.51-9.71 1.09-11.65l1.06-3.52-4.84 0.88c-2.66 0.49-7.24 1.99-10.17 3.35-3.54 1.64-5.84 2.07-6.87 1.28-1-0.77-2.55-0.67-4.37 0.29-2.78 1.46-2.78 1.49-0.28 2.61 2.23 0.99 1.84 1.38-3.19 3.19l-5.72 2.06 0.38-3.25c0.29-2.46 2.14-4.3 7.61-7.54 3.98-2.35 7.05-4.4597 6.83-4.6797s-2.83 0.4297-5.8 1.4597c-6.84 2.36-8.88 0.93-8.88-6.2197v-5.19l11.56 0.99c28.63 2.46 48.81 5.08 60.94 7.92 29.36 6.86 52.27 11.38 78.75 15.55 17.65 2.78 26.39 4.89 86.88 21.07 25.68 6.87 63.7 19.92 78.53 26.95 13.07 6.2 22.59 14.15 24.09 20.1 0.45 1.81 0.33 5.64-0.27 8.51-0.93 4.44-1.61 5.28-4.53 5.62-2.43 0.28-3.44 1.11-3.44 2.81 0 2.79-1.3 3.09-3.62 0.85-1.3-1.26-1.99-1.01-3.53 1.25-2.29 3.38-3.75 3.58-4.41 0.63-0.34-1.53-1.14-0.69-2.68 2.81-2.56 5.86-1.53 8.55 3.5 9.15 2.8 0.33 3.64-0.27 4.84-3.44 1.86-4.92 3.11-4.85 5.27 0.32 0.96 2.29 2.62 4.89 3.69 5.78 2.54 2.11 2.46 4.23-0.24 6.53-2.92 2.49-31.77 15.27-39.84 17.65-3.52 1.04-8.1 2.77-10.18 3.84-4.74 2.45-24.75 7.82-35.38 9.49-17.3 2.72-33.91 6.47-55.54 12.54-21.35 5.99-66.15 17.23-80 20.07-11.02 2.26-28.28 4.69-62.5 8.79-5.5 0.66-11.12 1.55-12.5 1.98-1.37 0.43-7.28 1.18-13.12 1.68-5.84 0.49-13.89 1.82-17.87 2.94-7.68 2.16-10.66 2.55-6.5 0.84zm11.88-8.8c0-0.69-0.84-1.25-1.87-1.25s-1.87 0.56-1.87 1.25 0.84 1.25 1.88 1.25 1.88-0.56 1.88-1.25zm-3.12-3.75c-0.42-0.69-1.72-1.24-2.89-1.23-1.82 0.02-1.85 0.19-0.24 1.23 2.45 1.58 4.1 1.58 3.13 0zm20.63-0.76c0-1.24-4.12-4.16-5.94-4.2-0.86-0.02-1.42 0.66-1.25 1.52 0.2 0.98-1.17 1.58-3.69 1.61-7.62 0.08-5.39 1.47 2.73 1.69 4.48 0.12 8.15-0.15 8.15-0.62zm23.75-1.04c0-0.3-0.56-0.9-1.25-1.32s-1.25-0.18-1.25 0.55 0.56 1.32 1.25 1.32 1.25-0.25 1.25-0.55zm15-7.65c0-1.07-0.56-1.6-1.25-1.18s-1.25 1.3-1.25 1.95 0.56 1.18 1.25 1.18 1.25-0.88 1.25-1.95zm-4.96-5.31c0.03-2.89 0.22-3.05 1.31-1.18 1.73 2.97 4.9 2.77 4.9-0.31 0-1.37-0.6-2.5-1.33-2.5-1.74 0-11.11-7.79-11.14-9.26-0.01-0.62 0.96-0.27 2.17 0.78 1.2 1.05 3.82 2.75 5.82 3.77 3.57 1.82 3.72 1.76 9.06-3.82 2.99-3.12 5.43-6.08 5.43-6.59s2.29-2.6 5.09-4.66c4.6-3.38 4.87-3.87 2.81-5.07-2.13-1.24-2.1-1.33 0.36-1.36 3.51-0.05 9.77-5 8.25-6.52-1.42-1.42-7.77 0.01-7.77 1.75 0 0.69 0.84 0.92 1.88 0.53 1.03-0.4 1.88-0.27 1.88 0.28 0 1.74-1.55 2.63-2.99 1.72-2.09-1.33-3.71-1.15-5.54 0.61-0.91 0.88-2.17 1.59-2.81 1.59-2.36 0-1.02-1.96 3.37-4.95l4.52-3.08-3.28-1.09c-3.75-1.25-3.21-3.37 0.87-3.4 2.23-0.02 2.39-0.25 0.86-1.23-2.92-1.88-6.03-1.47-8.65 1.15-2.81 2.81-4.31 2.04-2.52-1.31 0.98-1.84 0.81-2.34-0.8-2.34-1.31 0-1.79-0.68-1.33-1.87 0.9-2.33-2.94-2.55-5.45-0.31-1.39 1.24-1.38 1.05 0.06-0.94 2.73-3.76 4.05-4.46 7.05-3.76 1.5 0.35 3.08 0.08 3.51-0.61s2.15-1.25 3.83-1.25c3.62 0 3.79-0.83 0.86-4.18-1.2-1.38-1.48-2.09-0.62-1.59 2.31 1.35 1.92 0.01-1.52-5.2-4.99-7.56-6.68-9.34-8.06-8.48-0.72 0.44-2.41 0.22-3.76-0.5-1.54-0.82-2.72-0.87-3.19-0.11-0.41 0.66-1.5 0.91-2.43 0.55s-4.86 0.27-8.73 1.4-7.74 1.81-8.58 1.52c-0.85-0.29-5.32 1.42-9.94 3.79-6.51 3.35-9.53 4.21-13.44 3.84-2.77-0.26-5.03-0.18-5.02 0.18 0.07 2.85 5.55 17.38 7.31 19.39 1.22 1.39 3.25 4.21 4.51 6.27 2.25 3.66 13.49 14.53 21.18 20.48 2.12 1.64 2.93 2.66 1.8 2.28-3.97-1.36-17.07-12.14-23.41-19.29-3.53-3.97-7.32-9.75-8.43-12.85s-2.81-7.59-3.79-10c-1.73-4.27-1.76-4.17-1.28 4.61 0.43 7.83 1.04 9.76 4.79 15 2.36 3.31 6.14 9.25 8.39 13.2s4.53 7.19 5.06 7.19c0.95 0 2.88 1.61 15.72 13.09 3.44 3.07 7.23 5.6 8.44 5.62s2.12 0.46 2.04 0.97c-0.33 2.07 0.21 2.92 1.4 2.19 0.69-0.42 1.27-2.29 1.29-4.14zm8.71-15.66c0-2.25 2.71-5.83 4.42-5.83 1.77 0 2.35-1.42 1.92-4.71-0.14-1.04 1.14-1.48 3.72-1.29l3.93 0.3-4.18 3.52c-2.3 1.94-5.45 4.75-6.99 6.26s-2.81 2.29-2.81 1.75zm1.25-9.58c0-0.69 0.84-1.25 1.88-1.25s1.88 0.56 1.88 1.25-0.84 1.25-1.87 1.25-1.87-0.56-1.87-1.25zm-1.78-8.91c-2.77-2.69-1.07-3.16 2.36-0.66 1.27 0.93 1.8 1.98 1.18 2.34s-2.21-0.4-3.53-1.68zm-4.37-8.07c0.06-1.46 0.36-1.75 0.76-0.76 0.36 0.9 0.32 1.98-0.1 2.4s-0.71-0.32-0.66-1.64zm1.15-14.27c0-0.69 0.6-1.25 1.32-1.25 0.73 0 0.98 0.56 0.55 1.25s-1.02 1.25-1.32 1.25-0.55-0.56-0.55-1.25zm-3.75-5c0-1.37 0.51-2.5 1.13-2.5s0.84 1.13 0.48 2.5-0.87 2.5-1.13 2.5-0.48-1.12-0.48-2.5zm-0.91-7.5c0.19-2.51 1.09-3.15 2.49-1.75 0.97 0.97-0.29 4.25-1.64 4.25-0.57 0-0.95-1.12-0.85-2.5zm20.72 68.58c3.08 0.77 4.89 0.83 10.5 0.36 1.2-0.1 2.19-1.03 2.19-2.06 0-2.26 3.28-2.51 4.18-0.31 0.41 1.01 1 1.12 1.67 0.31 1.45-1.76 5.73-1.55 6.35 0.32 0.29 0.86 1.13 1.56 1.88 1.56s0.14-1.31-1.37-2.91c-1.5-1.6-2.35-3.29-1.88-3.75 1.36-1.36 2.93-0.97 2.93 0.72 0 1.97 13.97 2.16 14.62 0.2 0.28-0.83-0.99-1.13-3.34-0.78-4.75 0.7-4.84-0.37-0.23-2.75 3.19-1.65 3.77-1.62 5.67 0.28 1.83 1.83 2.27 1.87 3.25 0.28 0.83-1.34 0.23-2.43-2.23-4.05l-3.37-2.22 4.38-0.06c6.17-0.09 11.5-2.61 10.12-4.79-0.87-1.38-1.59-1.2-3.73 0.94-2.57 2.57-6.41 3.6-6.39 1.71 0-0.52 1.69-1.9 3.75-3.07s3.74-3 3.74-4.06 0.7-2 1.56-2.08-0.12-0.5-2.19-0.94c-2.19-0.46-4.26-1.96-4.98-3.6-0.68-1.55-1.66-2.81-2.19-2.81-0.52 0-0.95-0.84-0.95-1.87s-0.54-1.87-1.21-1.87-0.84-0.98-0.38-2.19c0.79-2.08 0.72-2.08-1.38 0-2.7 2.68-3.42 2.77-2.48 0.31 0.89-2.31-2.42-2.53-4.8-0.31-0.92 0.86-2.51 1.75-3.53 1.97-1.01 0.22-3.03 1.51-4.49 2.87-1.45 1.35-3.35 2.3-4.22 2.09-0.87-0.2-1.86 0.41-2.21 1.37-0.39 1.06-0.08 1.4 0.78 0.86 1.6-0.99 1.74-0.52 0.65 2.3-0.42 1.09-1.54 1.98-2.5 1.98s-1.74 0.56-1.74 1.25-1.03 1.25-2.29 1.25-3.06 1.45-4.01 3.22c-1.25 2.33-2.49 3.07-4.49 2.69-2.08-0.4-3.65 0.66-6.3 4.25-1.94 2.63-3.95 4.79-4.47 4.81s-0.94 2.39-0.94 5.28c0 3.82 0.37 4.88 1.38 3.87 0.78-0.78 2.81-1.02 4.69-0.55zm-2.31-3.96c0-2.03 12.14-4.95 13.23-3.19 0.37 0.59-1.21 1.08-3.51 1.08s-5.42 0.88-6.95 1.95c-2.33 1.63-2.78 1.66-2.78 0.17zm21.88-4.61c0.42-0.69 1.62-1.25 2.65-1.25s1.53 0.56 1.1 1.25-1.62 1.25-2.65 1.25-1.53-0.56-1.1-1.25zm11.89-0.94c0.03-1.71 2.33-4.63 3.07-3.89 0.98 0.98-0.58 4.83-1.97 4.83-0.61 0-1.11-0.42-1.1-0.94zm5.08-5c-0.07-1.89 0.62-2.81 2.09-2.79 1.35 0.01 1.66 0.37 0.81 0.94-0.76 0.51-1.7 1.76-2.09 2.79-0.48 1.25-0.75 0.94-0.81-0.94zm-5.72-2.81c0.42-0.69 1.3-1.25 1.95-1.25s1.18 0.56 1.18 1.25-0.88 1.25-1.95 1.25-1.6-0.56-1.18-1.25zm-5.62-10c0-0.69 0.56-1.25 1.25-1.25s1.25 0.56 1.25 1.25-0.56 1.25-1.25 1.25-1.25-0.56-1.25-1.25zm10.56-3.86c-0.46-0.75-0.24-1.96 0.49-2.69 0.94-0.94 1.27-0.54 1.13 1.36-0.23 3.06-0.44 3.23-1.61 1.33zm18.19 18.86c1.62-1.04 1.58-1.21-0.24-1.23-1.16-0.01-2.46 0.54-2.89 1.23-0.98 1.58 0.68 1.58 3.13 0zm18.91-0.94c1.55-1.98 1.51-2.03-0.47-0.47-1.2 0.94-2.19 1.93-2.19 2.19 0 1.03 1.03 0.37 2.66-1.72zm-4.71-0.94c0.4-1.03 0.24-1.87-0.34-1.87s-1.76 0.84-2.61 1.88c-1.27 1.53-1.2 1.88 0.34 1.88 1.04 0 2.22-0.84 2.61-1.87zm10.8-2.63c0-0.27-0.84-0.49-1.87-0.49s-1.87 0.54-1.87 1.21 0.84 0.89 1.88 0.49 1.88-0.94 1.88-1.21zm7.81-1.32c-0.86-0.35-2.27-0.35-3.12 0-0.86 0.35-0.16 0.63 1.56 0.63s2.42-0.28 1.56-0.63zm9.69-0.42c0-0.69-0.25-1.25-0.55-1.25s-0.9 0.56-1.32 1.25-0.18 1.25 0.55 1.25 1.32-0.56 1.32-1.25zm-26.76-4.68c-0.87-0.87-3.24 0.89-3.24 2.41 0 0.83 0.72 0.73 1.91-0.25 1.05-0.87 1.65-1.84 1.33-2.15zm24.23 2.23c3.06-1.93 0.89-2.47-2.47-0.62-1.81 1-2.34 1.74-1.25 1.75 1.03 0.01 2.7-0.5 3.71-1.14zm-34.96-1.3c0-0.69-0.25-1.25-0.55-1.25s-0.9 0.56-1.32 1.25-0.18 1.25 0.55 1.25 1.32-0.56 1.32-1.25zm26.25 0c0-0.69-0.25-1.25-0.55-1.25s-0.9 0.56-1.32 1.25-0.18 1.25 0.55 1.25 1.32-0.56 1.32-1.25zm-21-2.75c-1.17-1.17-1.83-1.17-3 0s-0.83 1.5 1.5 1.5 2.67-0.33 1.5-1.5zm14.66-2.09c1.53-2.86 0.62-3.91-3.38-3.91-2.27 0-2.86 0.51-2.29 1.98 0.42 1.09 0.76 2.49 0.76 3.13 0 2.08 3.64 1.2 4.91-1.19zm-25.8-3.91c0.72-2.76-0.04-3.09-2.86-1.23-1.67 1.09-1.67 1.37 0 2.46 1.03 0.68 1.95 1.24 2.04 1.25s0.46-1.11 0.82-2.48zm31.56-3.06c1.81-1.68 3.95-3.29 4.75-3.58s1.06-0.95 0.57-1.47c-0.48-0.52-1.79-0.03-2.9 1.08s-2.83 2.02-3.81 2.02-1.79 0.24-1.79 0.52c0 0.29-0.34 1.41-0.76 2.5-1.07 2.79 0.11 2.46 3.93-1.08zm58.08-0.73c0-0.63-0.84-0.81-1.87-0.42s-1.55 1.23-1.16 1.86c0.81 1.31 3.03 0.26 3.03-1.44zm16.34 0.94c-0.15-1.49-1.87-1.21-2.41 0.41-0.28 0.83 0.18 1.27 1 1s1.46-0.91 1.41-1.41zm-140.87-2.85c0.43-1.11 0.22-1.61-0.49-1.18-0.68 0.42-1.24 1.29-1.24 1.94 0 1.8 0.9 1.4 1.73-0.76zm7.02 0.69c0-0.69-0.25-1.25-0.55-1.25s-0.9 0.56-1.32 1.25-0.18 1.25 0.55 1.25 1.32-0.56 1.32-1.25zm27.5 0.7c0-1.32-2.4-1.87-3.11-0.72-0.43 0.7 0.09 1.27 1.16 1.27s1.95-0.25 1.95-0.55zm13.19-3.78c2.26-5.41 2.25-5.76-0.07-4.86-1.04 0.4-3.88 0.35-6.33-0.11-4.86-0.91-5.18-3.06-0.77-5.05 1.5-0.68 2.73-1.68 2.73-2.22s-1.72-0.1-3.81 0.99-4.9 1.63-6.24 1.2c-3.71-1.18-5.26 0.4-3.24 3.29 1.31 1.88 12.97 10.11 15.54 10.98 0.21 0.07 1.19-1.82 2.19-4.21zm33.69 1.03 3.75-1.71-4.67 0.55c-2.57 0.31-5.95 1.47-7.5 2.58-2.82 2.02-2.81 2.02 0.92 1.16 2.06-0.48 5.44-1.64 7.5-2.58zm-85.62-1.77c0-1.42-0.54-2.24-1.2-1.83s-0.88 1.56-0.49 2.57c0.99 2.58 1.69 2.28 1.69-0.74zm172.46-2.38c1.01-0.64 1.53-1.47 1.16-1.84s-1.76 0.14-3.09 1.14c-2.64 1.99-1.03 2.58 1.93 0.7zm-46.92-3c12.66-2.6 13.75-3.05 14.79-6.18 1.42-4.26 3.13-4.31 4.18-0.12 0.71 2.83 1.29 3.15 4.56 2.5 2.06-0.41 4.79-0.75 6.07-0.75 1.49 0 3.07-1.69 4.4-4.69l2.07-4.69 1.3 3.39c1.43 3.73 3.14 4.39 9.4 3.67 3.28-0.38 4.45-1.26 5.43-4.08 1.49-4.28 2.36-4.47 4.52-1.01 1.3 2.09 2.38 2.43 5.61 1.75 5.6-1.17 9.62-3.98 9.62-6.73 0-1.29 0.83-2.66 1.85-3.05 1.09-0.42 1.54-1.53 1.09-2.7-1.12-2.92-7.19-1.92-7.69 1.27-0.93 5.85-1.56 6.4-3.98 3.44-2.73-3.34-3.77-3.55-3.77-0.74 0 1.87-0.23 1.86-2.45-0.15-2.98-2.69-6.3-1.71-6.3 1.87 0 1.49-0.56 2.27-1.3 1.81-0.72-0.44-1-2.02-0.64-3.51 0.37-1.49 0.35-2.04-0.03-1.22s-1.5 1.18-2.49 0.8c-1.21-0.46-1.79 0.17-1.79 1.95 0 3.34-2 3.44-2.86 0.13-0.89-3.4-3.38-3.17-3.43 0.31-0.04 2.6-0.16 2.65-1.7 0.63-2.04-2.68-4.51-2.85-4.51-0.31 0 2.13-1.96 2.51-3.14 0.6-1.15-1.87-3.12-0.21-2.3 1.94 0.97 2.53-0.8 2.31-2.82-0.35-1.53-2.01-1.66-1.95-1.7 0.82-0.04 2.83-0.17 2.89-2.33 0.94-3.16-2.86-6.46-2.64-6.46 0.43 0 2.86-1.29 3.2-3.58 0.94-1.27-1.25-1.88-1.17-3.06 0.42-0.81 1.09-2.18 1.75-3.04 1.46s-1.91 0.38-2.33 1.48c-0.57 1.49-1.19 1.66-2.39 0.67-1-0.83-1.9-0.89-2.36-0.15-0.41 0.66-1.86 0.9-3.24 0.54-1.79-0.47-2.5-0.04-2.5 1.5 0 1.65-0.7 1.98-2.99 1.4-2.03-0.51-3.23-0.15-3.71 1.11-0.39 1.03-1.86 1.87-3.26 1.87-1.42 0-2.54 0.82-2.54 1.88 0 2.59 5.19 2.33 21.79-1.07zm-25.54 0.45c1.62-1.04 1.58-1.21-0.24-1.23-1.16-0.01-2.46 0.54-2.89 1.23-0.98 1.58 0.68 1.58 3.13 0zm-78.77-1.56c-0.01-0.86-0.56-2.41-1.23-3.44-1.04-1.6-1.21-1.56-1.23 0.31-0.01 1.2-0.72 2.2-1.58 2.21-1.04 0.01-0.94 0.42 0.31 1.23 2.55 1.65 3.75 1.55 3.73-0.31zm-38.73-0.94c0-0.69-0.25-1.25-0.55-1.25s-0.9 0.56-1.32 1.25-0.18 1.25 0.55 1.25 1.32-0.56 1.32-1.25zm25.63 0c0.42-0.69 0.18-1.25-0.55-1.25s-1.32 0.56-1.32 1.25 0.25 1.25 0.55 1.25 0.9-0.56 1.32-1.25zm193.55-4.43c-0.55-1.44-1.17-1.37-3.55 0.4-2.5 1.87-2.6 2.26-0.82 2.94 2.61 0.99 5.25-1.03 4.37-3.34zm-57.93 1.23c0-1.07-0.56-1.6-1.25-1.18s-1.25 1.3-1.25 1.95 0.56 1.18 1.25 1.18 1.25-0.88 1.25-1.95zm-85.62-3.7c20.35-0.68 38.39-3.56 45.21-7.24 1.95-1.05 4.66-2.31 6.04-2.81 2.18-0.78 1.97-1.06-1.67-2.18-3.21-0.99-4.41-0.9-5.2 0.38-0.84 1.35-1.4 1.29-3.02-0.32-1.09-1.09-1.99-2.6-1.99-3.36 0-4.25-21.84-5.5-29.25-1.67-5.07 2.62-16.91 6.19-21.28 6.43-4.08 0.22-7.66 2.9-8.58 6.44-0.53 2.02-0.29 2.14 1.75 0.87 1.3-0.81 2.36-2.12 2.36-2.9 0-0.79 1.13-1.72 2.5-2.08 1.38-0.36 2.5-0.14 2.5 0.48 0 2.32 6.16 1.06 8.05-1.65 1.07-1.53 1.95-2.16 1.95-1.4 0 2.17 4.75 2.86 6.36 0.92 0.8-0.96 2.33-1.75 3.41-1.75 1.57 0 1.48 0.37-0.47 1.84-1.88 1.42-2 1.86-0.55 1.95 1.07 0.07 0.62 0.62-1.04 1.29-1.6 0.64-4.28 0.83-5.94 0.41-1.83-0.46-3.02-0.21-3.02 0.63 0 0.76-1.31 1.39-2.92 1.39s-3.29 0.37-3.75 0.83-2.45 1.01-4.43 1.22c-4.83 0.53-10.16 2.63-10.16 4 0 0.64 2.27 0.6 5.31-0.09 2.92-0.66 10.94-1.39 17.81-1.62zm25.63-5.6c0-0.69 0.6-1.25 1.32-1.25 0.73 0 0.98 0.56 0.55 1.25s-1.02 1.25-1.32 1.25-0.55-0.56-0.55-1.25zm3.05-2.62c-0.39-0.62 0.01-1.13 0.87-1.13 1.26 0 1.26-0.31 0-1.56s-1.82-1.13-2.81 0.63c-0.68 1.2-1.91 2.18-2.73 2.17-1-0.01-0.93-0.38 0.22-1.11 0.95-0.6 1.37-1.67 0.93-2.37-0.84-1.37 4.95-1.18 6.33 0.2 0.43 0.43 1.41 0.26 2.19-0.39 0.87-0.72 2.11-0.72 3.24-0.01 1.53 0.97 1.48 1.16-0.35 1.18-1.2 0.01-2.19 0.52-2.19 1.12 0 1.56-4.85 2.65-5.7 1.28zm-18.29-6.99c0.9-0.36 1.98-0.32 2.4 0.1s-0.32 0.71-1.64 0.66c-1.46-0.06-1.75-0.36-0.76-0.76zm-3.52 17.1c0-0.69-0.25-1.25-0.55-1.25s-0.9 0.56-1.32 1.25-0.18 1.25 0.55 1.25 1.32-0.56 1.32-1.25zm97.5-1.5c0-2.02-0.37-2.38-1.39-1.36-0.77 0.77-1.01 2-0.55 2.75 1.29 2.09 1.94 1.63 1.94-1.39zm46.88 1.5c0.42-0.69 0.18-1.25-0.55-1.25s-1.32 0.56-1.32 1.25 0.25 1.25 0.55 1.25 0.9-0.56 1.32-1.25zm-219.38-1.21c0-0.67-0.84-0.89-1.87-0.49s-1.87 0.94-1.87 1.21 0.84 0.49 1.88 0.49 1.88-0.54 1.88-1.21zm191.25-2.69c0-0.69-0.56-0.9-1.25-0.48s-1.25 1.34-1.25 2.02 0.56 0.9 1.25 0.48 1.25-1.33 1.25-2.02zm49.38 1.4c0.42-0.69-0.14-1.25-1.25-1.25s-1.67 0.56-1.25 1.25 0.99 1.25 1.25 1.25 0.83-0.56 1.25-1.25zm-230.62-1.25c0-0.69-0.6-1.25-1.32-1.25-0.73 0-0.98 0.56-0.55 1.25s1.02 1.25 1.32 1.25 0.55-0.56 0.55-1.25zm9.75-0.25c1.83-1.83 1.94-3.5 0.25-3.5-0.69 0-1.25 0.8-1.25 1.77s-0.7 2.05-1.56 2.4-0.97 0.67-0.25 0.73c0.72 0.05 1.99-0.58 2.81-1.4zm207.75-1.62c1.27-1.53 1.2-1.87-0.34-1.87-1.04 0-2.22 0.84-2.61 1.88-0.4 1.03-0.24 1.88 0.34 1.88s1.76-0.84 2.61-1.87zm8.18 0.54c1.15-1.86-0.18-2.87-2.58-1.96-1.1 0.42-1.66 1.34-1.23 2.03 1.01 1.64 2.77 1.61 3.81-0.07zm-228.14-1.19c1.4-0.75 2.08-2.04 1.65-3.16-0.6-1.56-1.08-1.61-2.77-0.29-1.81 1.42-1.85 1.35-0.35-0.57 1.34-1.71 2.22-1.88 4.22-0.81 1.87 1 2.77 0.96 3.46-0.15 0.51-0.83 1.99-1.26 3.28-0.97 2.01 0.46 1.85 0.78-1.12 2.21-3.82 1.85-3.91 4.16-0.18 4.75 2 0.32 2.09 0.16 0.52-0.94-1.58-1.11-1.44-1.44 0.94-2.09 2.81-0.77 3.29-1.72 2.89-5.74-0.12-1.17 0.94-2.86 2.36-3.74 1.41-0.88 2.57-2.08 2.57-2.67s1.24-2.06 2.75-3.29l2.75-2.22-2.72-0.86c-2.72-0.86-2.72-0.87-0.25-3.52 1.36-1.46 2.48-3.12 2.48-3.67 0-1.81-2.81-1.07-4.45 1.17-0.88 1.2-1.97 1.81-2.43 1.35s0.34-2 1.77-3.44c3.42-3.42 3.3-3.85-1.06-3.85-2.57 0-3.9 0.75-4.46 2.5-0.44 1.38-1.27 2.5-1.84 2.5-0.58 0-0.75-1.12-0.39-2.5 0.69-2.65-2.53-3.65-4.01-1.25-1.22 1.97-3.13 1.46-2.33-0.62 0.89-2.32 0.54-2.32-4.71-0.03-2.32 1.01-5.86 3.54-7.86 5.63-3.9 4.04-7.16 5.24-4.34 1.6 0.93-1.2 3.39-3.71 5.47-5.57 3.04-2.73 3.34-3.4 1.52-3.44-1.24-0.03-5.04 2.85-8.44 6.39-6.16 6.43-7.53 8.83-4.67 8.24 0.83-0.17 1.53 0.39 1.56 1.25s1.6 3.2 3.49 5.2 3.44 3.97 3.44 4.37c0 1.48 4.36 5.75 5.86 5.75 0.87 0 1.24 0.83 0.84 1.88-0.83 2.17 1.17 2.43 4.58 0.61zm-8.5-7.72c0.77-2.32 3.46-2.7 3.46-0.49 0 1.09-0.89 1.98-1.98 1.98s-1.76-0.67-1.48-1.48zm27.21 5.23c0-0.69-0.98-1.24-2.19-1.23-1.87 0.02-1.91 0.2-0.31 1.23 2.36 1.52 2.5 1.52 2.5 0zm192.34 0.47c2.64-0.53 3.91-1.51 3.91-3.04 0-1.24 0.88-3.13 1.95-4.21s1.6-2.52 1.18-3.21c-1.31-2.12-4.05-1.4-4.74 1.24-0.87 3.33-2.88 3.17-4.02-0.31-0.83-2.53-1.01-2.37-1.75 1.56-0.46 2.46-1.49 4.24-2.35 4.06-0.84-0.17-1.52 0.81-1.52 2.19 0 2.67 1.19 2.95 7.34 1.72zm21.32-2.66c-0.08-3-0.22-3.12-1.09-0.94-0.55 1.38-0.76 2.92-0.46 3.44 1.06 1.83 1.64 0.89 1.56-2.5zm-15.33-1.87c-0.35-0.86-0.63-0.16-0.63 1.56s0.28 2.42 0.63 1.56 0.35-2.27 0-3.12zm-195.2 0.31c0.42-0.69 0.21-1.25-0.48-1.25s-1.6 0.56-2.02 1.25-0.21 1.25 0.48 1.25 1.6-0.56 2.02-1.25zm170.77-2.86c-1.02-1.02-1.39-0.88-1.39 0.53 0 2.48 1.68 4.17 2.3 2.3 0.26-0.79-0.15-2.06-0.91-2.83zm-253.91-1.49c4.78-2.41 9.84-4.37 11.24-4.37 3.34 0 21.1-4.66 24.66-6.47 1.52-0.78 4.23-3.62 6.02-6.32 1.8-2.72 5.16-5.71 7.54-6.7 5.1-2.13 5.33-3.29 1.19-6-4.81-3.15-15.65-19.35-15.65-23.38 0-5.71-4.76-10.01-12.41-11.22-6.39-1.01-8.82-1.98-21.34-8.53-9.36-4.89-9.9-5.13-11.86-5.13-1.04 0-1.94 0.42-1.99 0.94s-0.26 3.87-0.45 7.45-1.03 9.21-1.85 12.5c-2.44 9.72-6.55 23.27-8 26.38-0.99 2.12-0.97 3.13 0.08 3.78 0.88 0.54 1.02 1.56 0.37 2.62-2.05 3.31 1.66 22.5 5.05 26.14 3.48 3.74 7.36 3.36 17.4-1.69zm189.61 2.88c4.13-1.75 4.88-1.92 9.53-2.11 1.93-0.08 3.19-0.67 2.79-1.31-1.31-2.13-16.93 1.86-16.93 4.32 0 0.89 0.74 0.74 4.61-0.9zm22.89 0.24c0-0.69-0.25-1.25-0.55-1.25s-0.9 0.56-1.32 1.25-0.18 1.25 0.55 1.25 1.32-0.56 1.32-1.25zm53.9-3.34c-1.09-1.87-1.33-1.93-1.36-0.3-0.04 2.11 1.27 4 2.16 3.11 0.29-0.29-0.07-1.56-0.8-2.81zm-289.71-4.01c-0.58-0.43-1.06-2.17-1.06-3.88 0-1.97-0.8-3.26-2.19-3.53-1.2-0.23-2.19 0.16-2.19 0.88s0.82 0.99 1.82 0.6c1.49-0.57 1.62 0.01 0.71 3.19-0.61 2.14-0.63 3.59-0.04 3.22s1.51 0.61 2.04 2.16c0.85 2.53 1.01 2.58 1.46 0.48 0.28-1.29 0.03-2.7-0.55-3.12zm232.06 3.6c0-0.69-0.88-1.25-1.95-1.25s-1.6 0.56-1.18 1.25 1.3 1.25 1.95 1.25 1.18-0.56 1.18-1.25zm10.91-0.76c-0.42-0.42-1.49-0.46-2.4-0.1-1 0.4-0.7 0.7 0.76 0.76 1.32 0.05 2.06-0.24 1.64-0.66zm-97.08-4.2c-0.95-0.59-2.62-0.72-3.71-0.3-1.53 0.59-1.26 0.95 1.14 1.56 3.67 0.93 5.04 0.27 2.58-1.25zm58.67 1.17c0-1.28 6.03-4.3 7.81-3.92 0.52 0.11 0.94-0.64 0.94-1.67s0.98-1.87 2.19-1.86c1.7 0.01 1.81 0.26 0.49 1.09-1.38 0.87-1.39 1.26-0.07 2.08 0.95 0.59 1.83 0.39 2.11-0.47 0.27-0.81 1.29-1.47 2.26-1.47s1.77-0.56 1.77-1.25 0.56-1.25 1.25-1.25 1.25 0.77 1.25 1.72c0 1.32 1.17 1.14 5.12-0.82 4.17-2.06 5.31-2.22 6.16-0.85 0.81 1.32 1.71 1.38 4.13 0.27 1.7-0.77 4.27-1.1 5.71-0.72s2.63 0.1 2.63-0.61 1.69-1.67 3.75-2.12c2.17-0.48 3.75-1.63 3.75-2.73 0-1.18 0.71-1.64 1.88-1.19 1.03 0.4 1.88 0.17 1.88-0.49 0-0.67-2.11-1.22-4.69-1.23-3.38-0.01-4.17-0.34-2.85-1.18 1.01-0.64 1.57-1.39 1.25-1.66s-5.93-1.5-12.46-2.73c-11.39-2.14-15.39-3.66-31.71-12-4.18-2.13-7.07-3.05-6.71-2.12 0.42 1.09-0.56 1.68-2.97 1.78-1.98 0.08-3.6-0.35-3.6-0.96s0.68-1.1 1.5-1.1c1.08 0 1.04-0.43-0.16-1.56-1.32-1.25-1.77-1.25-2.23 0-0.32 0.86-1.39 1.56-2.38 1.56-1 0-2.12 0.8-2.49 1.78-0.97 2.53-4.24 3.54-4.24 1.31 0-1.01 0.78-1.84 1.74-1.84s2.07-0.84 2.46-1.87c0.83-2.17-0.85-2.42-4.21-0.62-1.62 0.87-2.61 0.82-3.2-0.13-0.6-0.97-1.18-0.88-1.93 0.31-0.79 1.25-1.08 1.28-1.09 0.13-0.01-0.86-0.58-1.56-1.27-1.56s-1.25 1.35-1.25 2.99c0 2.11 0.88 3.21 2.99 3.74 1.64 0.41 3.35 1.71 3.8 2.88 0.73 1.89 0.54 1.87-1.71-0.16-1.77-1.61-3-1.92-4.12-1.04-0.87 0.69-3.23 1.64-5.24 2.13-3.35 0.8-3.51 0.7-1.87-1.28 1.55-1.88 1.54-2.05-0.09-1.33-1.03 0.46-2.86 1.17-4.06 1.6-1.33 0.47-2.19 2.06-2.19 4.06 0 1.98-1.66 5.09-4.17 7.82-5.08 5.53-5.55 8.89-1.11 7.77 2.74-0.69 2.97-0.46 2.2 2.22-0.75 2.6-0.52 2.5 1.73-0.77 1.42-2.06 2.59-3.09 2.6-2.28s0.99 1.7 2.2 1.99c1.73 0.41 1.46 0.82-1.25 1.94-1.89 0.78-3.44 1.74-3.44 2.15 0 0.4 0.51 0.41 1.14 0.02s1.43 0 1.78 0.86c0.44 1.09 0.95 1.16 1.67 0.23 2.05-2.66 5.37-2.96 7.59-0.68 1.51 1.55 4.34 2.35 9.04 2.53 3.77 0.15 7.27 0.94 7.79 1.76s0.95 1.11 0.97 0.66c0.01-0.46 1.57-0.36 3.46 0.21 4.88 1.47 7.81 1.46 7.81-0.03zm-26.87-6.22c0.42-0.69 1.34-1.25 2.02-1.25s0.9 0.56 0.48 1.25-1.33 1.25-2.02 1.25-0.9-0.56-0.48-1.25zm30.2-2.19c-0.31-0.52 0.78-1.95 2.43-3.18 3.27-2.45 3.69-2.02 1.7 1.7-1.33 2.49-3.12 3.13-4.13 1.48zm17.92-1.35c0-2.15 2.33-2.93 4.68-1.56 1.21 0.70001 1.54 1.3 0.74 1.32s-2.35 0.38-3.44 0.8-1.98 0.17-1.98-0.55zm-7.5-2.71c0-0.69 0.56-1.25 1.25-1.25s1.25 0.56 1.25 1.25-0.56 1.25-1.25 1.25-1.25-0.56-1.25-1.25zm-0.62-12.5c0.42-0.69 1.3-1.25 1.95-1.25s1.18 0.56 1.18 1.25-0.88 1.25-1.95 1.25-1.6-0.56-1.18-1.25zm-5.35-1.44c0.26-0.79 1.82-1.94 3.47-2.55 2.94-1.09 2.95-1.06 0.68 1.44-2.51 2.77-4.91 3.41-4.14 1.1zm-10.27-6.06c0-0.69 0.6-1.25 1.32-1.25 0.73 0 0.98 0.56 0.55 1.25s-1.02 1.25-1.32 1.25-0.55-0.56-0.55-1.25zm11.25 31.25c0-0.69-0.56-1.25-1.25-1.25s-1.25 0.56-1.25 1.25 0.56 1.25 1.25 1.25 1.25-0.56 1.25-1.25zm-151.25-1.25c0-0.69-0.56-1.25-1.25-1.25s-1.25 0.56-1.25 1.25 0.56 1.25 1.25 1.25 1.25-0.56 1.25-1.25zm85.96-1.48c-0.77-2.32-3.46-2.7-3.46-0.49 0 1.09 0.89 1.98 1.98 1.98s1.76-0.67 1.48-1.48zm104.04-1.02c0-0.69-0.56-1.25-1.25-1.25s-1.25 0.56-1.25 1.25 0.56 1.25 1.25 1.25 1.25-0.56 1.25-1.25zm8.13-6.25c0.42-0.69-0.14-1.25-1.25-1.25s-1.67 0.56-1.25 1.25c0.42 0.69001 0.99 1.25 1.25 1.25s0.83-0.56 1.25-1.25zm-261.88-3.2c0-1.84-1.49-2.4-2.83-1.05-1.13 1.13 0.42 4.34 1.71 3.55 0.62-0.38 1.12-1.5 1.12-2.49zm151.94-5.43c3.59-5.43 3.91-12.96 0.83-19.61-2.14-4.62-12.43-11.67-18.47-12.65-5.23-0.85-14.13 2.28-17.69 6.22-2.83 3.13-5.36 9.82-5.36 14.19 0 3.33 3.76 13.37 4.66 12.47 0.62-0.62 2.56 0.75 6.37 4.5 2.78 2.73 18.07 3.58 23.04 1.28 1.89-0.88 4.87-3.76 6.62-6.4zm-25.23-2.84c-5.77-2.79-7.01-10.84-2.39-15.47 5.45-5.45 16.59-3.68 19.39 3.08 1.86 4.5 0.03 10.6-3.8 12.65-2.88 1.54-9.77 1.41-13.21-0.26zm12.05-9.63c0-2.93-3.15-5.67-5.11-4.46-1.04 0.65-0.88 1.23 0.57 2.04 1.12 0.63 2.04 1.95 2.04 2.95s0.56 1.81 1.25 1.81 1.25-1.06 1.25-2.35zm135 18.52c0-1.42-0.54-2.24-1.2-1.83s-0.88 1.56-0.49 2.57c0.99 2.58 1.69 2.28 1.69-0.74zm9.06 1.75c-0.86-0.35-2.27-0.35-3.12 0-0.86 0.35-0.16 0.63 1.56 0.63s2.42-0.28 1.56-0.63zm10.31-4.17c0.42-0.69-0.42-1.25-1.87-1.25s-2.3 0.56-1.87 1.25 1.27 1.25 1.88 1.25 1.45-0.56 1.88-1.25zm-1.87-4.5c0-1.29-0.88-1.57-3.12-1.01-1.83 0.46-3.12 0.25-3.12-0.51 0-2.38 3.89-5.22 7.28-5.32 1.84-0.05 2.62-0.39 1.73-0.75-1.18-0.48-1.25-1.08-0.25-2.29 1.06-1.28 0.5-1.83-2.51-2.49-2.13-0.47-4.5-1.87-5.28-3.11-1.58-2.54-3.81-1.74-9.64 3.42-6.12 5.42-7.11 2.42-1.23-3.73 2.18-2.29 3.23-4.22 2.42-4.49-0.78-0.26-2.18 0.56-3.1 1.82-1.6 2.19-1.83 2.14-4.94-0.97l-3.26-3.26 2.83-0.74c1.56-0.41 3.02-0.19 3.25 0.48 0.5 1.45 2.71 0.34 2.71-1.36 0-0.65-1.29-1.18-2.87-1.18s-3.55-0.67-4.37-1.5-1.5-1.02-1.5-0.43-1.11 0.06-2.47-1.17c-2.38-2.15-2.51-2.15-3.34 0.03-0.83 2.17-0.9 2.17-1.68-0.05-0.83-2.38-12.27-5.69-20.94-6.07-2.23-0.1-4.06-0.6-4.06-1.11 0-0.52-0.6-0.94-1.32-0.94-0.73 0-0.94 0.62-0.47 1.38 0.9 1.45-4.47 0.28-5.71-1.24-0.34-0.42-1.91-1.86-3.49-3.2-2.18-1.85-2.69-1.96-2.12-0.48 0.94 2.45-3.13 3.71-6.28 1.95-1.88-1.05-2.14-0.85-1.6 1.22 0.57 2.2 0.32 2.32-2.3 1.11-3.61-1.67-3.79-3.26-0.47-4.13 3.37-0.88 3.17-2.82-0.31-3.06-1.55-0.11-4.38-0.31-6.29-0.44s-3.83 0.32-4.26 1.01c-0.44 0.71-0.15 0.87 0.67 0.37 0.86-0.53 1.44-0.1 1.44 1.06 0 1.07-0.84 1.95-1.87 1.95-2.26 0-2.42 1.46-0.37 3.5 1.17 1.17 1.03 1.5-0.62 1.5-4.51 0-1.71 2.44 8.53 7.44 5.86 2.86 10.31 5.76 9.9 6.43-0.47 0.75 0.49 0.91 2.47 0.42 1.8-0.45 3.23-0.28 3.23 0.4 0 0.66 2.86 2.69 6.37 4.51 6.69 3.47 9.3 4.14 8.01 2.05-1.2-1.94 0.58-1.47 2.78 0.72 1.08 1.08 3.01 1.7 4.29 1.37 1.27-0.33 2.31-0.1 2.31 0.53s1.72 1.13 3.82 1.13c2.23 0 3.5 0.52 3.05 1.25-0.44 0.72 0.72 1.26 2.74 1.27 5.01 0.02 9.22 1.33 8.43 2.61-0.37 0.6 0.15 0.78 1.15 0.39s3.58 0.21 5.73 1.32 4.38 1.72 4.97 1.35c0.59-0.36 1.73 0.13 2.53 1.09 2.02 2.43 12.58 2.4 12.58-0.04zm-15.69-8.1c-0.45-0.73 0.37-1.63 1.81-2.01s2.63-1.18 2.63-1.79 0.56-1.1 1.25-1.1c2.25 0 1.32 2.17-1.81 4.22-2.03 1.33-3.33 1.56-3.88 0.68zm9.1-0.06c0.85-0.85 1.86-1.24 2.24-0.85 0.38 0.38-0.31 1.08-1.54 1.55-1.78 0.68-1.93 0.53-0.7-0.7zm-22.14-3.57c0-0.86 2.94-2.52 4.48-2.52 1.71 0 0.1 2.32-1.98 2.86-1.37 0.36-2.5 0.2-2.5-0.35zm-11.25-3.77c0-0.69 0.6-1.25 1.32-1.25 0.73 0 0.98 0.56 0.55 1.25s-1.02 1.25-1.32 1.25-0.55-0.56-0.55-1.25zm-16.48-2.1c0.9-0.36 1.98-0.32 2.4 0.1s-0.32 0.71-1.64 0.66c-1.46-0.06-1.75-0.36-0.76-0.76zm5.33-1.13c0.06-1.46 0.36-1.75 0.76-0.76 0.36 0.9 0.32 1.98-0.1 2.4s-0.71-0.32-0.66-1.64zm16.15-1.35c0-0.95 4.02-4.08 5.31-4.13 2.13-0.09 0.72 2.16-2.19 3.48-1.72 0.78-3.12 1.08-3.12 0.65zm-6.25-8.55c0-1.03 0.54-1.87 1.21-1.87s0.89 0.84 0.49 1.88c-0.4 1.03-0.94 1.88-1.21 1.88s-0.49-0.84-0.49-1.87zm-10-3.12c-2.28-1.48-0.31-1.48 3.13 0 1.65 0.71 1.86 1.1 0.63 1.14-1.03 0.04-2.72-0.48-3.75-1.14zm-36.25-3.68c0-0.73-1.27-1.39-2.81-1.47-2.05-0.11-2.23-0.3-0.66-0.71 2.81-0.74 6.83 1.43 4.89 2.63-0.78 0.48-1.41 0.28-1.41-0.45zm-106.11 32.63c-1.39-1.95-3.43-4.3-4.54-5.22-2.92-2.42-5.18-7.33-6.2-13.49-0.67-4.03-1.63-5.67-3.8-6.49-1.6-0.61-3.37-1.84-3.94-2.73-1.11-1.75-2.75-2.18-11.92-3.13l-5.88-0.61 0.77 4.8c0.78 4.88 6.05 14.18 8.03 14.18 0.6 0 1.08 0.73 1.08 1.63s1.97 3.54 4.38 5.87 4.38 3.72 4.38 3.09 0.85 0.06 1.89 1.54c2.04 2.91 4.54 3.68 12.89 3.94l5.4 0.17-2.53-3.55zm65.62-0.92c0.46-1.82 0.19-3.83-0.6-4.62-1.04-1.04-1.41-0.72-1.41 1.24 0 1.46-0.34 3.54-0.76 4.63s-0.15 1.98 0.6 1.98 1.72-1.45 2.17-3.22zm138.95 0.95c0.27-0.82-0.65-1.48-2.07-1.48-1.8 0-2.34 0.58-1.83 1.93 0.82 2.13 3.12 1.87 3.9-0.44zm6.2 1.51c-0.42-0.42-1.49-0.46-2.4-0.1-1 0.4-0.7 0.7 0.76 0.76 1.32 0.05 2.06-0.24 1.64-0.66zm-8.41-6.74c0-0.69-0.6-1.25-1.32-1.25-0.73 0-0.98 0.56-0.55 1.25s1.02 1.25 1.32 1.25 0.55-0.56 0.55-1.25zm-202.5-7.01c0-1.1 1.41-3.11 3.13-4.47 5.55-4.37 3.62-8.19-2.98-5.89-3.42 1.19-3.89 1.92-3.89 6.03 0 2.57 0.38 5.04 0.83 5.5 1.47 1.47 2.92 0.89 2.92-1.17zm192.5-1.82c0-0.65-0.56-1.18-1.25-1.18s-1.25 0.88-1.25 1.95 0.56 1.6 1.25 1.18 1.25-1.3 1.25-1.95zm-101.88-3.68c-0.42-0.69-1.33-1.25-2.02-1.25s-0.9 0.56-0.48 1.25 1.34 1.25 2.02 1.25 0.9-0.56 0.48-1.25zm-23.12-5.62c0-1.03-0.88-1.87-1.95-1.87s-1.6-0.56-1.18-1.25c1.07-1.73-1.05-1.57-2.84 0.21-1.12 1.12-0.81 1.83 1.31 3 3.81 2.11 4.65 2.09 4.65-0.09zm4.32 0.71c0.4-0.64 0.15-1.52-0.55-1.95s-1.27 0.09-1.27 1.16c0 2.2 0.75 2.52 1.82 0.79zm4.78-2.01c-2.59-1.9-3.46-1.46-2.43 1.22 0.43 1.12 1.54 1.6 2.69 1.16 1.72-0.66 1.69-0.95-0.26-2.38zm-18.48-3.08c0.44-0.71-0.61-1.25-2.43-1.25-1.76 0-3.2 0.56-3.2 1.25s1.09 1.25 2.43 1.25 2.77-0.56 3.2-1.25zm110.62 0c0-0.69-0.6-1.25-1.32-1.25-0.73 0-0.98 0.56-0.55 1.25s1.02 1.25 1.32 1.25 0.55-0.56 0.55-1.25zm-178.12-1.25c-0.42-0.69-1.33-1.25-2.02-1.25s-0.9 0.56-0.48 1.25 1.34 1.25 2.02 1.25 0.9-0.56 0.48-1.25zm62.89-2.42c0.31-0.94-0.16-1.41-1.09-1.09-0.9 0.3-1.89 1.29-2.19 2.19-0.31 0.94 0.16 1.41 1.09 1.09 0.9-0.3 1.89-1.29 2.19-2.19zm-52.67-4.88 2.44-4.57-9.46-0.45c-5.18-0.25-11.23-0.49-13.43-0.53-2.2-0.05-3.75-0.48-3.45-0.97s-0.24-1.54-1.2-2.34c-1.1-0.92-2.03-1-2.51-0.23-0.42 0.67-0.18 1.58 0.51 2.01 0.7 0.43 1.27 1.77 1.27 2.97 0 4.24 3.29 6.78 10.7 8.25 9.81 1.96 12.25 1.29 15.15-4.14zm47.9 3.55c0-0.69-0.6-1.25-1.32-1.25-0.73 0-0.98 0.56-0.55 1.25s1.02 1.25 1.32 1.25 0.55-0.56 0.55-1.25zm49.38 0c0.42-0.69 0.18-1.25-0.55-1.25s-1.32 0.56-1.32 1.25 0.25 1.25 0.55 1.25 0.9-0.56 1.32-1.25zm-126.91-1.25c1.84 0 2.55-3.89 1.18-6.45-1.95-3.63-6.41-8.59-9-9.99-2.72-1.46-7.5-0.17-6.34 1.72 1.36 2.19-7.21 0.02-11.06-2.8-1.86-1.37-3.97-2.48-4.69-2.48s-1.3-0.77-1.3-1.7c0-1.12-1.02-1.51-2.98-1.13-1.64 0.31-4.17-0.07-5.62-0.84-2.68-1.43-3.88 0.26-1.31 1.85 0.78 0.48-0.27 2-2.56 3.69l-3.89 2.87 10.6 5.2c5.83 2.86 12.75 5.53 15.37 5.93 2.63 0.4 5.9 1.32 7.28 2.03 3.5 1.81 9.68 3.19 11.67 2.6 0.92-0.27 2.12-0.49 2.68-0.49zm38.07-1.9c1.32-1 2.17-2.06 1.88-2.35s-1.86 0.55-3.48 1.86c-3.42 2.77-1.98 3.21 1.61 0.49zm11.64-3.39c0.85-0.68 1.22-1.77 0.81-2.43-0.42-0.68-1.66-0.35-2.9 0.77-1.19 1.08-2.82 1.96-3.63 1.96s-1.46 0.6-1.46 1.33c0 1.47 4.61 0.42 7.17-1.63zm74.7 1.54c0.98-1.58-0.68-1.58-3.12 0-1.62 1.04-1.58 1.21 0.24 1.23 1.16 0.01 2.46-0.54 2.89-1.23zm24.38 0c0-0.69-0.6-1.25-1.32-1.25-0.73 0-0.98 0.56-0.55 1.25s1.02 1.25 1.32 1.25 0.55-0.56 0.55-1.25zm-57.83-0.75c-0.42-0.42-1.49-0.46-2.4-0.1-1 0.4-0.7 0.7 0.76 0.76 1.32 0.05 2.06-0.24 1.64-0.66zm-62.79-8.55c2.06-0.39 6.56-1.04 10-1.46 4.31-0.52 7.59-1.88 10.58-4.37 2.7-2.26 3.59-3.62 2.38-3.62-1.07 0-2.96 1.13-4.21 2.5-2.9 3.21-6.83 3.6-4.22 0.42 1.55-1.89 1.36-2-2.03-1.16-2.06 0.51-3.94 1.45-4.17 2.08-0.23 0.64-1.02 1.16-1.76 1.16s-0.32-1.13 0.93-2.51c2.81-3.11 1.42-4.85-2.11-2.64-2.01 1.25-2.82 1.29-3.54 0.13-0.59-0.95-2.01-1.16-3.89-0.56-2.52 0.8-2.73 0.67-1.42-0.92 2.25-2.72 0.48-3.67-2.81-1.51-2.52 1.65-3.06 1.65-4.77-0.07-1.06-1.06-2.67-1.92-3.58-1.91-1.36 0.02-1.35 0.21 0.02 1.08 1.32 0.84 1.22 1.23-0.49 1.89-1.19 0.46-1.8 1.19-1.37 1.62 0.44 0.44 0.23 1.47-0.46 2.31-1.29 1.55-1.15 5.21 0.28 7.5 0.81 1.3 9.79 1.32 16.63 0.04zm1.88-4.52c0-0.73 0.56-0.98 1.25-0.55s1.25 1.02 1.25 1.32-0.56 0.55-1.25 0.55-1.25-0.6-1.25-1.32zm-48.42 0.58c1.03-1.03-0.33-4.25-1.79-4.25-0.65 0-0.84 0.56-0.42 1.25s0.14 1.25-0.62 1.25-1.05 0.56-0.62 1.25c0.87 1.41 2.34 1.62 3.46 0.5zm72.51-0.07c-0.85-0.34-2.53-0.36-3.75-0.05-1.22 0.32-0.52 0.6 1.54 0.62s3.06-0.23 2.21-0.58zm-66.02-5c-2.25-1.64-4.32-2.2-4.32-1.16 0 2.54 1.78 4.1 4.02 3.52 2.5-0.65 2.51-0.75 0.31-2.36zm11.89 0.9c1.73-3.23 1.64-3.83-0.58-3.83-1.03 0-1.87-0.54-1.87-1.21s0.84-0.89 1.88-0.49c1.2 0.46 1.88-0.02 1.88-1.33 0-1.69-0.46-1.81-2.6-0.66-2.08 1.11-3.09 0.96-5-0.77-1.32-1.19-2.4-2.92-2.4-3.85s-0.56-1.68-1.25-1.68-1.25 0.56-1.25 1.25c0 2.12-3.24 1.38-5.66-1.29-1.27-1.4-3.1-2.24-4.08-1.86-1.2 0.46-1.55 0.07-1.06-1.21 0.4-1.04 0.16-1.89-0.53-1.89s-1.57 0.84-1.97 1.88c-0.4 1.03-1.52 1.88-2.5 1.88s-2.1-0.84-2.5-1.87c-1.29-3.36-5.19-2.18-6.07 1.84-1.01 4.58-0.71 5.06 4.98 8.09 3.73 1.99 5.01 2.16 6.98 0.93 2.67-1.66 3.26-0.34 0.91 2.02-2.64 2.64 1.36 1.77 5.53-1.2 4.24-3.02 6.77-2.29 9.29 2.68 2.63 5.19 5.92 6.28 7.88 2.6zm-11.21-3.83c0-0.69-0.6-1.25-1.32-1.25-0.73 0-0.98 0.56-0.55 1.25s1.02 1.25 1.32 1.25 0.55-0.56 0.55-1.25zm7.16-7.01c-0.42-0.42-1.49-0.46-2.4-0.1-1 0.4-0.7 0.7 0.76 0.76 1.32 0.05 2.06-0.24 1.64-0.66zm-59.66-7.44c0-1.07-0.57-1.6-1.27-1.16-0.7 0.43-0.95 1.31-0.55 1.95 1.07 1.73 1.82 1.41 1.82-0.79zm7.5-2.57c0-0.26-1.41-0.48-3.12-0.48s-3.12 0.48-3.12 1.08c0 0.59 1.41 0.81 3.13 0.48s3.13-0.81 3.13-1.08z" />
</svg>
